<?xml version="1.0" standalone="no"?>
<!DOCTYPE svg PUBLIC "-//W3C//DTD SVG 20010904//EN"
 "http://www.w3.org/TR/2001/REC-SVG-20010904/DTD/svg10.dtd">
<svg version="1.0" xmlns="http://www.w3.org/2000/svg"
 width="220.000000pt" height="220.000000pt" viewBox="0 0 220.000000 220.000000"
 preserveAspectRatio="xMidYMid meet">
<metadata>
Created by potrace 1.16, written by Peter Selinger 2001-2019
</metadata>
<g transform="translate(0.000000,220.000000) scale(0.100000,-0.100000)"
fill="#000000" stroke="none">
<path d="M972 2015 c-34 -8 -97 -30 -140 -51 -103 -49 -221 -166 -275 -274
-95 -189 -84 -435 28 -604 114 -173 270 -260 486 -273 123 -7 200 7 305 57
136 65 241 193 300 365 38 110 41 266 6 367 -79 229 -283 368 -538 368 -124 0
-154 -7 -154 -34 0 -18 -11 -26 -57 -42 -32 -10 -64 -20 -70 -22 -9 -2 -13 9
-13 33 0 33 4 38 43 55 51 23 181 50 237 50 25 0 39 4 35 10 -9 14 -118 11
-193 -5z m-142 -127 c0 -25 -8 -39 -31 -59 l-32 -26 30 4 c26 4 31 1 35 -21 5
-23 -2 -30 -67 -65 -40 -22 -86 -52 -103 -66 -35 -29 -42 -21 -42 47 0 38 6
47 89 129 96 97 121 108 121 57z m587 -137 c32 -37 109 -185 92 -179 -19 7
-111 25 -171 33 -45 6 -49 9 -68 52 -26 59 -26 61 12 100 28 29 36 32 72 26
24 -4 48 -16 63 -32z m-349 2 c15 -9 43 -32 63 -51 26 -24 43 -32 56 -28 15 5
23 -2 36 -29 20 -41 24 -38 -81 -54 -39 -6 -102 -22 -138 -36 -37 -14 -68 -25
-70 -25 -3 0 -37 114 -48 162 -7 32 -1 36 79 59 76 22 71 22 103 2z m445 -9
c53 -18 93 -71 124 -164 28 -87 25 -263 -7 -360 -22 -67 -25 -71 -28 -42 -2
18 3 45 11 61 8 16 11 33 7 38 -5 4 -10 46 -13 93 -2 47 -8 95 -12 108 -6 19
-4 22 16 22 23 1 23 2 -9 31 -19 17 -43 51 -54 77 -12 26 -36 71 -54 100 -19
28 -32 52 -31 52 2 0 24 -7 50 -16z m-645 -136 c18 -74 20 -95 10 -101 -7 -4
-54 -32 -104 -61 l-91 -53 -16 56 c-33 121 -33 125 10 158 43 34 143 93 158
93 6 0 20 -42 33 -92z m405 -85 c16 -40 47 -142 47 -154 0 -16 -51 -15 -77 2
-37 25 -51 24 -64 -3 -7 -16 -31 -30 -80 -46 -39 -12 -74 -20 -79 -17 -9 6
-70 157 -70 174 0 12 141 58 214 70 90 15 92 14 109 -26z m128 27 c128 -23
137 -28 148 -79 21 -98 21 -105 -5 -124 -21 -16 -30 -16 -95 -4 l-72 13 -22
74 c-12 41 -27 87 -33 103 -13 32 -8 33 79 17z m-801 -43 c0 -19 7 -56 15 -83
19 -64 19 -64 -9 -29 l-25 30 2 -71 c1 -39 7 -77 13 -85 6 -8 17 -30 23 -49 6
-20 27 -59 46 -89 19 -29 35 -59 35 -67 0 -8 4 -14 10 -14 5 0 40 -22 77 -49
38 -26 85 -55 106 -63 42 -16 48 -27 23 -43 -12 -7 -32 -2 -79 22 -171 89
-273 245 -296 454 -11 104 -6 142 22 156 34 17 37 15 37 -20z m340 -139 c29
-85 31 -94 15 -103 -9 -5 -49 -31 -88 -57 -40 -25 -75 -44 -80 -41 -10 6 -44
73 -62 125 l-15 43 30 25 c30 26 149 100 161 100 4 0 21 -42 39 -92z m79 -186
c19 -38 19 -39 0 -82 -11 -24 -22 -46 -24 -48 -11 -11 -135 22 -152 40 -17 19
-17 20 11 41 24 19 136 87 143 87 2 0 11 -17 22 -38z"/>
<path d="M1264 611 c-174 -79 -174 -350 2 -417 50 -19 159 -16 207 6 l27 13 0
109 0 108 -80 0 -80 0 0 -35 c0 -35 0 -35 45 -35 l45 0 0 -49 c0 -55 -11 -64
-80 -64 -83 0 -134 58 -134 153 0 105 54 160 157 160 33 0 71 -7 88 -16 l30
-15 -3 43 c-2 35 -7 43 -28 49 -51 14 -154 9 -196 -10z"/>
<path d="M1864 616 c-45 -20 -74 -62 -74 -107 0 -50 41 -98 113 -132 68 -32
91 -58 83 -92 -12 -47 -94 -58 -165 -22 l-31 15 0 -38 c0 -21 5 -42 11 -46 22
-13 146 -17 182 -5 51 17 87 63 87 111 0 53 -41 98 -125 140 -46 23 -67 39
-71 56 -9 37 1 52 45 65 32 10 48 9 85 -3 l46 -15 0 37 c0 31 -4 39 -22 44
-40 10 -132 6 -164 -8z"/>
<path d="M281 598 c-28 -75 -126 -339 -137 -370 l-13 -38 43 0 42 0 18 55 17
56 82 -3 81 -3 20 -52 c19 -48 23 -52 59 -55 21 -2 40 -1 41 2 3 4 -28 89
-130 363 l-26 67 -44 0 c-37 0 -46 -4 -53 -22z"/>
<path d="M1610 405 l0 -215 40 0 40 0 0 215 0 215 -40 0 -40 0 0 -215z"/>
<path d="M731 499 c-13 -5 -30 -17 -37 -27 -12 -16 -13 -15 -14 6 0 19 -5 22
-40 22 l-41 0 3 -157 3 -157 35 0 35 0 5 108 c5 99 7 109 30 128 17 13 33 18
52 14 26 -5 28 -3 28 28 0 22 -6 36 -16 40 -9 3 -16 6 -17 5 -1 0 -13 -5 -26
-10z"/>
<path d="M936 500 c-129 -39 -151 -247 -32 -304 38 -18 118 -21 147 -6 26 14
28 76 2 64 -10 -4 -35 -9 -55 -12 -32 -3 -42 1 -69 27 -28 29 -31 36 -26 78 8
78 70 116 145 90 20 -8 22 -5 22 23 0 24 -6 33 -26 40 -30 12 -68 12 -108 0z"/>
</g>
</svg>
