<?xml version="1.0" standalone="no"?>
<!DOCTYPE svg PUBLIC "-//W3C//DTD SVG 20010904//EN"
 "http://www.w3.org/TR/2001/REC-SVG-20010904/DTD/svg10.dtd">
<svg version="1.0" xmlns="http://www.w3.org/2000/svg"
 width="1600.000000pt" height="674.000000pt" viewBox="0 0 1600.000000 674.000000"
 preserveAspectRatio="xMidYMid meet">

<g transform="translate(0.000000,674.000000) scale(0.100000,-0.100000)"
fill="#000000" stroke="none">
<path d="M2825 6716 c-82 -13 -162 -39 -238 -77 -38 -20 -377 -218 -552 -324
-38 -23 -119 -72 -180 -107 -60 -36 -328 -195 -595 -353 -267 -159 -543 -323
-615 -365 -308 -181 -362 -221 -443 -323 -96 -121 -153 -247 -178 -397 -21
-125 -21 -2673 0 -2800 25 -153 87 -288 189 -411 73 -87 136 -133 400 -290
122 -72 254 -151 292 -174 39 -23 160 -95 270 -160 110 -65 243 -144 295 -175
52 -32 219 -130 370 -220 151 -89 307 -182 345 -205 161 -97 364 -214 420
-243 176 -88 400 -102 596 -37 83 28 126 52 524 288 149 88 342 203 430 255
88 52 192 114 230 137 39 23 160 95 270 160 110 65 232 137 270 160 39 24 192
115 340 203 149 88 293 180 320 203 87 75 154 161 205 264 54 109 74 175 90
299 14 109 14 2583 0 2692 -15 122 -36 189 -90 299 -91 183 -171 257 -475 437
-121 72 -240 143 -265 158 -25 15 -178 106 -340 202 -297 176 -730 433 -980
581 -74 44 -190 113 -257 153 -209 125 -285 156 -433 174 -100 12 -111 12
-215 -4z m262 -150 c88 -19 142 -43 288 -131 162 -96 354 -210 565 -335 96
-57 218 -129 270 -160 52 -32 185 -111 295 -175 110 -65 254 -151 320 -190 66
-39 231 -138 367 -219 136 -81 270 -165 298 -187 110 -87 204 -242 235 -389
l8 -35 -34 44 c-19 25 -54 55 -79 69 -64 34 -180 28 -260 -13 -45 -23 -294
-175 -735 -448 -44 -28 -99 -62 -123 -76 -705 -432 -1321 -817 -1378 -863
-120 -94 -196 -206 -229 -333 -13 -52 -15 -227 -15 -1385 0 -1180 2 -1332 16
-1380 21 -72 60 -128 112 -161 52 -33 41 -39 -61 -39 -153 1 -241 34 -497 186
-296 178 -1615 960 -1855 1101 -146 86 -193 122 -264 199 -68 74 -131 194
-158 300 -17 64 -18 162 -18 1424 0 1267 1 1360 18 1425 29 115 90 226 172
313 79 83 76 81 635 412 151 89 307 182 345 205 39 23 160 95 270 160 110 65
232 137 270 160 39 23 171 102 295 175 124 74 277 165 340 202 152 91 225 125
302 142 84 19 201 19 285 2z m741 -3635 l3 -103 27 7 c91 25 179 25 189 -1 8
-22 -37 -201 -55 -217 -11 -10 -39 -15 -82 -15 -112 -1 -221 -65 -263 -154
-17 -36 -23 -121 -11 -153 11 -28 57 -43 159 -50 124 -9 179 -27 227 -73 137
-132 81 -468 -113 -676 l-69 -74 0 -97 c0 -53 -4 -105 -10 -115 -12 -23 -137
-93 -150 -85 -6 3 -10 49 -10 101 0 61 -4 94 -11 94 -6 0 -36 -7 -66 -16 -60
-18 -156 -15 -175 4 -13 13 12 148 38 210 l14 34 59 -7 c103 -12 236 42 294
119 55 71 77 163 53 220 -23 56 -60 72 -181 79 -151 10 -215 43 -256 132 -29
63 -26 211 6 313 29 91 100 205 169 272 l46 44 0 101 c0 67 4 107 13 119 17
23 129 96 142 92 6 -1 11 -48 13 -105z m1110 -1148 l-3 -87 -80 -50 c-265
-165 -469 -284 -477 -280 -4 3 -8 41 -8 84 0 71 2 81 23 95 36 26 531 323 540
324 4 1 6 -38 5 -86z"/>
<path d="M12458 4859 c-283 -24 -526 -128 -699 -299 -188 -184 -264 -426 -215
-682 41 -213 190 -392 466 -560 67 -41 279 -125 500 -199 135 -44 276 -97 314
-117 87 -45 168 -119 198 -180 32 -66 32 -178 0 -244 -26 -53 -91 -117 -151
-147 -115 -59 -323 -77 -465 -41 -203 52 -324 175 -374 378 -31 130 -50 137
-343 130 -192 -4 -212 -9 -235 -63 -20 -48 -3 -180 38 -300 53 -151 195 -332
340 -432 220 -152 460 -223 748 -223 654 0 1113 398 1050 911 -30 251 -153
433 -400 596 -161 106 -273 153 -610 259 -391 123 -513 226 -498 417 11 134
97 224 268 283 43 15 82 19 175 18 103 0 129 -4 187 -26 157 -59 252 -182 289
-372 8 -42 19 -68 39 -88 l28 -28 227 0 c136 0 234 4 246 10 38 21 52 66 44
149 -41 470 -457 822 -1010 854 -38 2 -109 1 -157 -4z"/>
<path d="M6794 4821 c-12 -5 -31 -22 -43 -37 l-21 -27 0 -1386 c0 -1540 -6
-1417 66 -1447 48 -20 938 -20 1104 0 431 52 745 275 861 613 10 29 23 98 30
154 13 114 1 252 -31 343 -54 159 -163 299 -297 384 -23 15 -42 30 -43 33 0 3
24 25 53 48 191 155 277 391 237 651 -45 288 -282 528 -611 619 -189 52 -221
54 -769 57 -287 2 -524 0 -536 -5z m1116 -521 c81 -29 127 -57 168 -104 48
-55 64 -101 65 -186 0 -62 -4 -84 -26 -126 -53 -104 -175 -181 -324 -204 -38
-6 -162 -9 -278 -8 l-210 3 -3 328 -2 329 272 -4 c255 -4 277 -6 338 -28z
m-25 -1131 c72 -13 168 -56 213 -94 75 -63 122 -169 122 -274 0 -173 -106
-306 -293 -366 -76 -24 -87 -25 -353 -25 l-274 0 0 385 0 385 263 0 c148 0
289 -5 322 -11z"/>
<path d="M9938 4814 c-36 -19 -40 -28 -110 -233 -155 -456 -391 -1150 -403
-1186 -7 -22 -86 -254 -175 -515 -307 -901 -295 -866 -285 -896 6 -15 23 -36
38 -48 26 -19 43 -21 232 -24 221 -3 258 3 283 49 7 13 59 166 115 339 l103
315 399 0 399 0 101 -315 c56 -173 107 -326 114 -338 24 -44 65 -52 270 -52
104 0 201 4 214 9 40 15 67 51 67 89 0 30 -893 2721 -919 2771 -24 44 -58 51
-243 51 -133 -1 -179 -4 -200 -16z m212 -986 c0 -7 50 -168 110 -357 61 -189
110 -345 110 -347 0 -2 -105 -4 -234 -4 l-234 0 33 103 c135 423 200 617 207
617 4 0 8 -6 8 -12z"/>
<path d="M13964 4820 c-12 -4 -31 -21 -43 -36 l-21 -27 0 -1386 c0 -1540 -6
-1417 66 -1447 47 -20 371 -20 418 0 69 29 66 -4 66 653 l0 593 480 0 480 0 0
-587 c0 -450 3 -594 13 -613 25 -51 65 -60 263 -60 196 0 233 7 261 48 17 26
18 92 21 1390 1 941 -1 1376 -8 1403 -8 28 -21 46 -43 59 -29 18 -51 20 -227
20 -177 0 -198 -2 -228 -20 -18 -11 -37 -32 -42 -46 -6 -15 -10 -238 -10 -565
l0 -539 -480 0 -480 0 0 550 0 550 -29 32 -29 33 -204 2 c-111 1 -213 -2 -224
-7z"/>
<path d="M8975 1493 c-70 -19 -105 -85 -105 -199 0 -140 58 -210 164 -201 92
8 143 96 134 229 -6 72 -27 119 -69 150 -27 20 -89 31 -124 21z m76 -53 c34
-19 49 -64 49 -147 0 -60 -5 -85 -20 -110 -33 -55 -103 -53 -129 4 -6 13 -11
65 -11 114 0 87 1 92 29 120 31 31 51 35 82 19z"/>
<path d="M11955 1493 c-70 -18 -105 -84 -105 -201 0 -95 26 -155 80 -184 45
-25 140 -19 179 10 23 17 26 27 29 96 l3 76 -71 0 c-63 0 -70 -2 -70 -19 0
-16 8 -20 38 -23 35 -3 37 -5 40 -39 4 -47 -18 -69 -67 -69 -64 0 -101 57
-101 155 0 91 38 155 92 155 30 0 68 -31 68 -55 0 -11 11 -15 36 -15 34 0 36
1 29 28 -16 67 -98 105 -180 85z"/>
<path d="M14076 1490 c-48 -15 -86 -58 -86 -100 0 -48 45 -91 128 -120 87 -32
112 -70 72 -110 -38 -38 -125 -18 -143 33 -4 11 -17 17 -37 17 -41 0 -40 -32
3 -75 56 -56 166 -60 227 -9 25 21 30 33 30 68 0 23 -7 52 -16 64 -17 24 -72
55 -119 66 -51 12 -75 34 -75 66 0 58 80 81 125 35 14 -13 25 -29 25 -35 0 -5
14 -10 30 -10 38 0 40 26 4 69 -37 44 -103 60 -168 41z"/>
<path d="M6730 1465 c0 -24 2 -25 65 -25 l65 0 0 -172 0 -173 30 0 30 0 0 172
0 172 68 3 c61 3 67 5 70 26 l3 22 -165 0 -166 0 0 -25z"/>
<path d="M7180 1293 l0 -198 30 0 30 0 0 88 0 87 75 0 75 0 0 -85 0 -85 30 0
29 0 3 195 3 195 -32 0 -33 0 0 -80 0 -80 -75 0 -75 0 0 80 0 80 -30 0 -30 0
0 -197z"/>
<path d="M7612 1294 l3 -195 133 -2 132 -2 0 25 0 25 -100 -3 -100 -3 0 70 0
71 85 0 c84 0 85 0 85 25 0 25 -1 25 -85 25 l-85 0 0 55 0 55 100 0 100 0 0
25 0 25 -135 0 -135 0 2 -196z"/>
<path d="M8460 1293 l0 -198 102 4 c119 4 153 17 174 66 19 45 8 91 -27 117
l-28 21 24 19 c49 38 40 113 -17 148 -27 16 -51 20 -130 20 l-98 0 0 -197z
m192 130 c23 -21 23 -55 -1 -77 -10 -9 -41 -19 -70 -23 l-51 -6 0 62 0 61 52
0 c34 0 58 -6 70 -17z m2 -164 c62 -49 10 -119 -90 -119 l-34 0 0 70 0 70 49
0 c34 0 56 -6 75 -21z"/>
<path d="M9310 1330 l0 -160 34 -38 c33 -36 37 -37 100 -37 61 0 68 2 98 33
l33 32 3 165 3 165 -30 0 -31 0 0 -127 c0 -71 -5 -145 -11 -166 -12 -46 -46
-65 -87 -51 -44 15 -52 45 -52 202 l0 142 -30 0 -30 0 0 -160z"/>
<path d="M9740 1293 l0 -198 30 0 30 0 0 78 0 77 39 0 c38 0 40 -1 77 -74 35
-67 42 -75 71 -78 19 -2 33 1 33 7 0 5 -18 43 -40 83 l-39 72 37 34 c32 30 37
40 37 80 0 38 -5 51 -33 78 -32 32 -34 33 -137 36 l-105 4 0 -199z m190 127
c52 -52 6 -120 -81 -120 l-49 0 0 70 0 70 55 0 c42 0 60 -5 75 -20z"/>
<path d="M10158 1296 l3 -194 29 -4 29 -4 3 135 3 136 70 -134 c68 -131 71
-135 103 -135 l32 -1 0 198 0 197 -35 0 -35 0 -1 -132 0 -133 -67 133 c-67
132 -67 132 -102 132 l-35 0 3 -194z"/>
<path d="M10590 1295 l0 -195 135 0 c128 0 135 1 135 20 0 19 -7 20 -100 20
l-100 0 0 70 0 70 85 0 c84 0 85 0 85 25 0 25 -1 25 -85 25 l-85 0 0 55 0 55
100 0 100 0 0 25 0 25 -135 0 -135 0 0 -195z"/>
<path d="M11481 1303 c-36 -104 -66 -192 -68 -198 -2 -5 12 -10 31 -11 31 0
35 3 48 45 l14 46 69 0 69 0 12 -40 c10 -36 14 -40 46 -43 l36 -3 -67 195 -66
196 -30 0 -31 0 -63 -187z m118 28 c12 -38 21 -74 21 -80 0 -6 -19 -11 -45
-11 -28 0 -45 4 -45 12 0 12 42 148 46 148 1 0 11 -31 23 -69z"/>
<path d="M12328 1296 c-36 -107 -64 -197 -62 -199 3 -2 19 -1 36 2 26 5 33 13
42 46 l12 40 69 0 69 0 12 -40 c9 -33 16 -41 42 -46 25 -5 32 -3 32 8 0 8 -28
98 -62 199 l-62 184 -30 0 -31 0 -67 -194z m121 32 c29 -86 29 -88 -24 -88
-30 0 -45 4 -45 13 0 15 40 137 45 137 2 0 13 -28 24 -62z"/>
<path d="M12720 1465 c0 -23 4 -25 45 -25 l45 0 0 -145 0 -145 -45 0 c-41 0
-45 -2 -45 -25 l0 -25 125 0 125 0 0 25 c0 23 -4 25 -45 25 l-45 0 0 145 0
145 45 0 c41 0 45 2 45 25 l0 25 -125 0 -125 0 0 -25z"/>
<path d="M13132 1293 l3 -196 33 -1 32 -1 1 140 0 140 60 -120 c84 -166 82
-163 118 -157 l31 4 0 194 0 194 -35 0 -34 0 -3 -132 -3 -133 -65 132 -65 133
-38 0 -37 0 2 -197z"/>
<path d="M14410 1293 l0 -198 30 0 30 0 0 88 0 87 75 0 75 0 0 -84 0 -84 30
-4 c17 -3 32 -2 35 0 3 3 5 92 5 199 l0 193 -35 0 -35 0 0 -80 0 -80 -75 0
-75 0 0 80 0 80 -30 0 -30 0 0 -197z"/>
<path d="M14840 1296 l0 -195 135 -3 135 -3 0 25 c0 25 0 25 -97 25 l-98 0 0
65 0 65 83 3 c80 3 82 3 82 27 0 25 -1 25 -85 25 l-85 0 0 55 0 55 100 0 100
0 0 25 0 25 -135 0 -135 0 0 -194z"/>
<path d="M15270 1295 l0 -195 135 0 c128 0 135 1 135 20 0 18 -8 20 -97 22
l-98 3 -3 173 -2 172 -35 0 -35 0 0 -195z"/>
<path d="M15700 1293 l0 -198 132 2 c125 2 133 3 136 22 3 19 -3 20 -100 23
l-103 3 -3 173 -2 172 -30 0 -30 0 0 -197z"/>
<path d="M11040 1270 c0 -19 7 -20 115 -20 108 0 115 1 115 20 0 19 -7 20
-115 20 -108 0 -115 -1 -115 -20z"/>
</g>
</svg>
