<?xml version="1.0" standalone="no"?>
<!DOCTYPE svg PUBLIC "-//W3C//DTD SVG 20010904//EN"
 "http://www.w3.org/TR/2001/REC-SVG-20010904/DTD/svg10.dtd">
<svg version="1.0" xmlns="http://www.w3.org/2000/svg"
 width="280.000000pt" height="280.000000pt" viewBox="0 0 280.000000 280.000000"
 preserveAspectRatio="xMidYMid meet">
<metadata>
Created by potrace 1.16, written by Peter Selinger 2001-2019
</metadata>
<g transform="translate(0.000000,280.000000) scale(0.100000,-0.100000)"
fill="#000000" stroke="none">
<path d="M1224 2671 c-147 -42 -286 -144 -371 -272 -44 -67 -83 -178 -95 -274
-20 -154 15 -306 99 -437 79 -121 203 -216 345 -264 101 -35 289 -36 388 -4
216 73 356 211 436 435 26 72 26 309 0 380 -81 225 -239 377 -455 439 -76 22
-266 20 -347 -3z"/>
<path d="M480 1381 c-127 -42 -211 -94 -297 -183 -131 -136 -202 -348 -174
-526 38 -253 195 -446 435 -534 75 -28 91 -30 211 -30 148 0 211 15 319 76
125 70 250 218 295 348 123 357 -71 737 -433 847 -91 28 -274 29 -356 2z"/>
<path d="M1965 1380 c-208 -67 -371 -226 -441 -430 -29 -84 -26 -322 4 -404
63 -170 174 -297 328 -375 100 -50 166 -65 294 -64 88 0 132 5 185 21 326 99
528 451 445 776 -58 229 -221 401 -446 472 -98 31 -277 33 -369 4z"/>
</g>
</svg>
