<?xml version="1.0" standalone="no"?>
<!DOCTYPE svg PUBLIC "-//W3C//DTD SVG 20010904//EN"
 "http://www.w3.org/TR/2001/REC-SVG-20010904/DTD/svg10.dtd">
<svg version="1.0" xmlns="http://www.w3.org/2000/svg"
 width="900.000000pt" height="900.000000pt" viewBox="0 0 900.000000 900.000000"
 preserveAspectRatio="xMidYMid meet">

<g transform="translate(0.000000,900.000000) scale(0.100000,-0.100000)"
fill="#000000" stroke="none">
<path d="M817 6806 c-114 -47 -174 -104 -225 -213 l-27 -58 -3 -2025 c-2
-1826 -1 -2030 14 -2080 41 -144 161 -252 309 -279 81 -15 7146 -15 7225 0
123 23 226 106 283 227 l32 67 3 2020 c2 1986 2 2021 -17 2085 -35 114 -107
196 -218 248 l-58 27 -3630 2 -3630 3 -58 -24z m1929 -1461 l396 -495 51 63
c29 34 207 257 397 495 l345 432 403 0 402 0 -2 -1352 -3 -1353 -397 -1 -398
-2 -2 774 -3 773 -382 -477 c-210 -262 -389 -485 -396 -496 -12 -17 -41 16
-333 380 -175 220 -354 443 -396 497 l-78 99 -2 -774 -3 -773 -395 0 -395 0
-3 1353 -2 1352 400 0 400 0 396 -495z m4174 -200 l0 -695 396 0 c218 0 394
-4 392 -9 -3 -8 -1017 -1127 -1122 -1239 -33 -34 -63 -61 -67 -60 -4 2 -273
296 -598 653 l-590 650 394 3 395 2 0 695 0 695 400 0 400 0 0 -695z"/>
</g>
</svg>
